<svg xmlns="http://www.w3.org/2000/svg" width="360" height="360" viewBox="0 0 360 360" version="1.1"><path d="M 175.088 36.264 C 163.172 58.505, 148.963 76.935, 127.866 97.514 C 114.625 110.430, 107.499 116.500, 85.215 133.845 C 55.758 156.773, 41.947 185.736, 47.439 213.064 C 52.425 237.874, 71.309 257.400, 96.856 264.159 C 107.487 266.971, 123.652 266.962, 134.500 264.138 C 138.900 262.993, 147.383 259.608, 153.350 256.617 L 164.200 251.179 163.503 255.829 C 162.381 263.312, 156.265 280.831, 152.040 288.664 C 145.254 301.245, 135.265 313.157, 126.491 319.132 C 123.201 321.373, 123.013 321.809, 123.007 327.250 L 123 333 180 333 L 237 333 236.993 327.250 C 236.987 321.809, 236.799 321.373, 233.509 319.132 C 224.735 313.157, 214.746 301.245, 207.960 288.664 C 203.735 280.831, 197.619 263.312, 196.497 255.829 L 195.800 251.179 206.650 256.617 C 212.617 259.608, 221.100 262.993, 225.500 264.138 C 236.348 266.962, 252.513 266.971, 263.144 264.159 C 288.691 257.400, 307.575 237.874, 312.561 213.064 C 318.053 185.736, 304.242 156.773, 274.785 133.845 C 252.501 116.500, 245.375 110.430, 232.134 97.514 C 211.037 76.935, 196.828 58.505, 184.912 36.264 C 182.486 31.734, 180.275 28.028, 180 28.028 C 179.725 28.028, 177.514 31.734, 175.088 36.264" stroke="none" fill="#040404" fill-rule="evenodd"/></svg>